# xmcd
#
# Track frame offsets: 
#        182
#        10680
#        26205
#        44955
#        65582
#        82530
#        97760
#        110212
#        136232
#        152432
#        170657
#        184685
#        205537
#        224140
#        237632
#        252487
#        270265
#        283012
#        300340
#        322912
#
# Disc length: 4497 seconds
#
# Revision: 5
# Processed by: cddbd v1.5.2PL0 Copyright (c) Steve Scherf et al.
# Submitted via: ExactAudioCopy v1.0b3
#
DISCID=16118f14
DTITLE=Alexis Korner - Bootleg Him! (Compilation)
DYEAR=1972
DGENRE=Blues
TTITLE0=She Fooled Me -Blues Incorporated 1961
TTITLE1=I'm a hoochie coochie man -Bl. Incorpor. -62
TTITLE2=Yellow Dog Blues -Blues Incorp. -66
TTITLE3=I Wonder Who -Blues Incorp. -67
TTITLE4=Dee -Blues Incorporated -67
TTITLE5=Oh Lord, Don' let them drop that atomic bomb on me -Bl. Inc. -
TTITLE5=65
TTITLE6=Rockin' -Bl. Incorporated -63
TTITLE7=Honesty -Bl. Incorpor. -65
TTITLE8=I got a woman -Bl. Incorpor. -66
TTITLE9=Mighty-Mighty Spade and Whitey -Bl. Inc. -69
TTITLE10=Corinna Corinna -A.Korner and Victor Brox -67
TTITLE11=Operator -A.Korner and Robert Plant -68
TTITLE12=The love you save -A.Korner and Victor Brox -67
TTITLE13=Jesus is just alright -New church -70
TTITLE14=That's All -A.Korner -70
TTITLE15=Evil hearted woman -A.Korner and Peter Thorup -71
TTITLE16=Clay house inn -A.Korner -70
TTITLE17=Love is gonna go -A.Korner -70
TTITLE18=Sunrise -CCS (Creative Consciousness Society) -70
TTITLE19=Hellhound on my trail -A.Korner and Peter Thorup -71
EXTD=
EXTT0=
EXTT1=
EXTT2=
EXTT3=
EXTT4=
EXTT5=
EXTT6=
EXTT7=
EXTT8=
EXTT9=
EXTT10=
EXTT11=
EXTT12=
EXTT13=
EXTT14=
EXTT15=
EXTT16=
EXTT17=
EXTT18=
EXTT19=
PLAYORDER=
